<svg id="Layer_2_00000025429322025423079700000018132401794538810013_" enable-background="new 0 0 512 512" height="512" viewBox="0 0 512 512" width="512" xmlns="http://www.w3.org/2000/svg" xmlns:xlink="http://www.w3.org/1999/xlink"><linearGradient id="UserGear_00000060016636243258290280000014185469948428706239_" gradientTransform="matrix(1 0 0 -1 0 513.64)" gradientUnits="userSpaceOnUse" x1="63.309" x2="382.31" y1="371.059" y2="52.048"><stop offset="0" stop-color="#64b5f6"/><stop offset="1" stop-color="#1976d2"/></linearGradient><g id="_04.Icon"><path id="UserGear" d="m360.1 467.2h-312.7c-27.1 0-46.4-26.4-38.1-52.2l32.9-102.8c10.6-33 46.7-50.1 78.9-37.6 21.4 8.3 48.9 14.8 82.6 14.8s61.2-6.5 82.6-14.8c6.8-2.6 13.9-4 20.8-4.1l1.4.8c-.1 1.5-.1 2.9-.1 4.4s0 3 .1 4.4l-1.6.9c-16.1 9.3-21.7 30-12.4 46.1l11.8 20.4c6 10.4 17.2 16.9 29.3 16.9 5.9 0 11.8-1.6 16.9-4.5l1.6-.9c2.5 1.6 5 3 7.6 4.4v1.8c0 17.8 13.9 32.5 31.4 33.7l5.1 15.9c8.3 26-10.9 52.4-38.1 52.4zm-156.3-422.4c-56.9 0-103.1 46.2-103.1 103.1s46.2 103.1 103.1 103.1 103.1-46.2 103.1-103.1-46.2-103.1-103.1-103.1zm299 272.4-11.8 20.4c-3.8 6.6-12.2 8.9-18.8 5l-13-7.5c-7.6 6.6-16.5 11.8-26.3 15.2v15c0 7.6-6.2 13.8-13.8 13.8h-23.6c-7.6 0-13.8-6.2-13.8-13.8v-15c-9.8-3.3-18.7-8.5-26.3-15.2l-13 7.5c-6.6 3.8-15 1.5-18.8-5l-11.8-20.4c-3.8-6.6-1.5-15 5-18.8l12.9-7.5c-1-4.9-1.5-10-1.5-15.2s.5-10.3 1.5-15.2l-12.9-7.5c-6.6-3.8-8.9-12.2-5-18.8l11.8-20.4c3.8-6.6 12.2-8.9 18.8-5l13 7.5c7.6-6.6 16.5-11.8 26.3-15.2v-14.9c0-7.6 6.2-13.8 13.8-13.8h23.6c7.6 0 13.8 6.2 13.8 13.8v14.9c9.8 3.3 18.7 8.5 26.3 15.2l13-7.5c6.6-3.8 15-1.6 18.8 5l11.8 20.4c3.8 6.6 1.5 15-5 18.8l-13 7.5c1 4.9 1.5 10 1.5 15.2s-.5 10.3-1.5 15.2l13 7.5c6.5 3.8 8.8 12.2 5 18.8zm-61.1-41.5c0-19-15.4-34.3-34.3-34.3-19 0-34.3 15.4-34.3 34.3 0 19 15.4 34.3 34.3 34.3 18.9.1 34.3-15.3 34.3-34.3z" fill="url(#UserGear_00000060016636243258290280000014185469948428706239_)"/></g></svg>