<svg id="Layer_2_00000075130667231693993440000000756614789143482503_" enable-background="new 0 0 512 512" height="512" viewBox="0 0 512 512" width="512" xmlns="http://www.w3.org/2000/svg" xmlns:xlink="http://www.w3.org/1999/xlink"><linearGradient id="UserTie_00000155144074104132559830000003034017507367746478_" gradientTransform="matrix(1 0 0 -1 0 512)" gradientUnits="userSpaceOnUse" x1="63.006" x2="448.995" y1="370.786" y2="-15.204"><stop offset="0" stop-color="#64b5f6"/><stop offset="1" stop-color="#1976d2"/></linearGradient><g id="_04.Icon"><path id="UserTie" d="m256 512h-187.5c-33.9 0-58-33-47.6-65.3l37-115.4c13.8-43.2 60.8-66.2 103.4-50.8 13.8 5 29.6 9.3 47.3 12.2l28.6 49.2c1.4 2.4 1.7 5.3.9 7.9l-30.2 99.2c-.9 3.1-.3 6.5 1.6 9l38.9 50.5c2 2.3 4.8 3.5 7.6 3.5zm235.1-65.3-37-115.4c-13.8-43.2-60.8-66.2-103.4-50.8-13.8 5-29.6 9.3-47.3 12.2l-28.6 49.3c-1.4 2.4-1.7 5.3-.9 7.9l30.2 99.1c.9 3.1.3 6.5-1.7 9l-38.9 50.5c-2 2.3-4.8 3.5-7.6 3.5h187.5c34 0 58-33 47.7-65.3zm-235.1-446.7c-69 0-125 56-125 125s56 125 125 125 125-56 125-125-56-125-125-125z" fill="url(#UserTie_00000155144074104132559830000003034017507367746478_)"/></g></svg>