<svg id="Layer_2_00000128486392322224230670000013368477551538159776_" enable-background="new 0 0 512 512" height="512" viewBox="0 0 512 512" width="512" xmlns="http://www.w3.org/2000/svg" xmlns:xlink="http://www.w3.org/1999/xlink"><linearGradient id="User_00000175311949607877497570000009868882526849019043_" gradientTransform="matrix(1 0 0 -1 0 512)" gradientUnits="userSpaceOnUse" x1="63.008" x2="448.996" y1="370.788" y2="-15.2"><stop offset="0" stop-color="#64b5f6"/><stop offset="1" stop-color="#1976d2"/></linearGradient><g id="_04.Icon"><path id="User" d="m443.5 512h-375c-33.9 0-58-33-47.6-65.3l37-115.4c13.8-43.2 60.7-66.2 103.4-50.8 25.1 9.1 56.7 16 94.7 16s69.6-6.9 94.7-16c42.6-15.4 89.6 7.6 103.4 50.8l37 115.4c10.3 32.3-13.7 65.3-47.6 65.3zm-187.5-512c-69 0-125 56-125 125s56 125 125 125 125-56 125-125-56-125-125-125z" fill="url(#User_00000175311949607877497570000009868882526849019043_)"/></g></svg>