<?xml version="1.0" encoding="UTF-8" standalone="no"?>
<!-- Created with Inkscape (http://www.inkscape.org/) -->

<svg
   version="1.1"
   id="svg4200"
   xml:space="preserve"
   width="682.66669"
   height="682.66669"
   viewBox="0 0 682.66669 682.66669"
   xmlns="http://www.w3.org/2000/svg"
   xmlns:svg="http://www.w3.org/2000/svg"><defs
     id="defs4204"><clipPath
       clipPathUnits="userSpaceOnUse"
       id="clipPath4214"><path
         d="M 0,512 H 512 V 0 H 0 Z"
         id="path4212" /></clipPath><clipPath
       clipPathUnits="userSpaceOnUse"
       id="clipPath4242"><path
         d="M 0,512 H 512 V 0 H 0 Z"
         id="path4240" /></clipPath></defs><g
     id="g4206"
     transform="matrix(1.3333333,0,0,-1.3333333,0,682.66667)"><g
       id="g4208"><g
         id="g4210"
         clip-path="url(#clipPath4214)"><g
           id="g4216"
           transform="translate(956.8752,460.2696)"><path
             d="m 0,0 c -10.72,10.72 -22.132,20.323 -34.094,28.811 -47.679,33.832 -113.632,-4.072 -107.843,-62.248 0.309,-3.1 0.466,-6.233 0.466,-9.394 0,-66.32 -69.124,-120.083 -154.393,-120.083 v 0 c -101.991,0 -156.56,-120.089 -89.467,-196.905 5.258,-6.02 10.836,-11.859 16.734,-17.493 103.501,-98.884 268.003,-96.719 369.005,4.717 C 103.002,-269.561 102.866,-102.866 0,0"
             style="fill:#eff3f3;fill-opacity:1;fill-rule:nonzero;stroke:none"
             id="path4218" /></g><g
           id="g4220"
           transform="translate(812.0006,13.4613)"><path
             d="m 0,0 c 53.318,8.46 104.482,33.237 145.283,74.213 102.594,103.035 102.458,269.729 -0.408,372.595 -10.72,10.72 -22.133,20.324 -34.094,28.811 -47.68,33.833 -113.632,-4.071 -107.843,-62.247 0.308,-3.1 0.466,-6.233 0.466,-9.395 0,-66.32 -69.124,-120.083 -154.393,-120.083 v 0 c -101.992,0 -156.561,-120.088 -89.467,-196.905 5.258,-6.02 10.836,-11.859 16.734,-17.493 40.933,-39.107 91.407,-62.409 143.72,-70.016"
             style="fill:none;stroke:#000000;stroke-width:20;stroke-linecap:round;stroke-linejoin:round;stroke-miterlimit:10;stroke-dasharray:none;stroke-opacity:1"
             id="path4222" /></g></g></g><path
       d="M 354,158 H 158 v 196 h 196 z"
       style="fill:#ff9d6c;fill-opacity:1;fill-rule:nonzero;stroke:none"
       id="path4224" /><g
       id="g4226"
       transform="translate(354,394)"><path
         d="m 0,0 v 108 h -344 v -344 h 108 V 0 Z"
         style="fill:#ffc15a;fill-opacity:1;fill-rule:nonzero;stroke:none"
         id="path4228" /></g><g
       id="g4230"
       transform="translate(394,354)"><path
         d="M 0,0 V -236 H -236 V -344 H 108 V 0 Z"
         style="fill:#f5737f;fill-opacity:1;fill-rule:nonzero;stroke:none"
         id="path4232" /></g><path
       d="M 354,158 H 158 v 196 h 196 z"
       style="fill:none;stroke:#000000;stroke-width:20;stroke-linecap:round;stroke-linejoin:round;stroke-miterlimit:10;stroke-dasharray:none;stroke-opacity:1"
       id="path4234" /><g
       id="g4236"><g
         id="g4238"
         clip-path="url(#clipPath4242)"><g
           id="g4244"
           transform="translate(354,394)"><path
             d="m 0,0 v 108 h -344 v -344 h 108 V 0 Z"
             style="fill:none;stroke:#000000;stroke-width:20;stroke-linecap:round;stroke-linejoin:round;stroke-miterlimit:10;stroke-dasharray:none;stroke-opacity:1"
             id="path4246" /></g><g
           id="g4248"
           transform="translate(393.9997,10)"><path
             d="M 0,0 H 108 V 344 H 0 V 108 H -236 V 0 h 156"
             style="fill:none;stroke:#000000;stroke-width:20;stroke-linecap:round;stroke-linejoin:round;stroke-miterlimit:10;stroke-dasharray:none;stroke-opacity:1"
             id="path4250" /></g><g
           id="g4252"
           transform="translate(354,10)"><path
             d="M 0,0 V 0"
             style="fill:none;stroke:#000000;stroke-width:20;stroke-linecap:round;stroke-linejoin:round;stroke-miterlimit:10;stroke-dasharray:none;stroke-opacity:1"
             id="path4254" /></g></g></g></g></svg>
