<svg viewBox="0 0 512 512" xmlns="http://www.w3.org/2000/svg"><g id="Layer_2" data-name="Layer 2"><g id="Layer_1_copy_4" data-name="Layer 1 copy 4"><g id="_21" data-name="21"><circle id="background" cx="256" cy="256" fill="#ff0075" r="256"/><g fill="#fff"><path d="m385.9 177.74h-51.64v127.42a29.1 29.1 0 0 1 -29.1 29.1h-127.42v51.64a29.1 29.1 0 0 0 29.1 29.1h179.06a29.09 29.09 0 0 0 29.1-29.1v-179.06a29.1 29.1 0 0 0 -29.1-29.1z"/><path d="m206.84 177.74h127.42v-51.64a29.1 29.1 0 0 0 -29.1-29.1h-179.06a29.09 29.09 0 0 0 -29.1 29.1v179.06a29.1 29.1 0 0 0 29.1 29.1h51.64v-127.42a29.1 29.1 0 0 1 29.1-29.1z"/></g></g></g></g></svg>