<svg version="1.1" id="Layer_1" xmlns="http://www.w3.org/2000/svg" xmlns:xlink="http://www.w3.org/1999/xlink" x="0px" y="0px"
	 width="100%" viewBox="0 0 584 492" enable-background="new 0 0 584 492" xml:space="preserve">
<path fill="#FEFEFE" opacity="1.000000" stroke="none" 
	d="
M585.000000,317.000000 
	C585.000000,375.605804 585.000000,434.211578 585.000000,493.000000 
	C503.312531,493.000000 421.624908,493.000000 339.474487,492.693176 
	C339.043396,491.978394 339.075134,491.570465 339.510468,491.122131 
	C355.060089,488.651520 367.662415,481.193848 376.555542,469.125397 
	C382.753937,460.713806 386.789185,450.648102 391.380280,441.123413 
	C405.571899,411.681610 419.539948,382.132172 433.658112,352.654846 
	C437.011017,345.654236 440.610840,338.771881 444.410706,331.985535 
	C445.309296,332.712982 445.869293,333.318298 446.483673,333.862183 
	C449.121368,336.197113 451.740662,338.711395 455.539368,335.932159 
	C459.240784,333.224152 457.852356,330.117340 456.562317,326.698395 
	C454.659302,321.654938 453.249603,316.425293 452.011810,311.226440 
	C455.261047,305.451996 458.416107,299.850037 460.944275,293.978149 
	C470.465729,271.863800 476.700409,248.764893 478.730743,224.817459 
	C480.792664,200.497131 477.411530,176.653992 467.915375,154.013870 
	C461.416840,138.520386 454.553558,123.086662 442.928955,110.542572 
	C426.483063,92.795845 408.159363,77.094345 388.323975,63.323952 
	C373.324585,52.910892 357.977173,42.867729 342.083252,33.903584 
	C313.992096,18.060247 284.502441,5.625390 251.979126,1.806005 
	C251.987442,1.358154 251.993729,1.179077 252.000000,1.000000 
	C362.924072,1.000000 473.848145,1.000000 585.000000,1.000000 
	C585.000000,103.020782 585.000000,205.041733 584.653076,307.397430 
	C581.952576,297.541718 573.545715,291.063751 563.385620,291.611725 
	C553.280396,292.156799 544.934143,299.958405 544.014221,309.719086 
	C543.055237,319.894318 549.312683,329.268616 558.780212,331.840302 
	C568.752136,334.548920 578.761841,329.808746 583.159546,320.326508 
	C583.691406,319.179810 584.382629,318.107056 585.000000,317.000000 
M491.986847,334.728699 
	C503.123779,337.477295 513.349731,335.220612 522.892944,328.705078 
	C524.955444,332.302460 526.734863,336.123688 531.702942,334.150116 
	C535.416809,332.674774 535.885498,329.728210 535.778931,326.010529 
	C535.236145,307.070465 534.566589,288.118713 534.741577,269.178467 
	C534.867493,255.539536 536.287109,241.914352 537.042236,228.278214 
	C537.239380,224.718781 535.934021,222.054413 531.896912,221.664612 
	C527.958801,221.284378 525.454590,222.901443 524.801758,226.919556 
	C524.455383,229.051697 524.128906,231.199402 523.999939,233.352463 
	C523.412048,243.163925 522.910339,252.980515 522.339905,262.793060 
	C522.270203,263.992493 521.972900,265.178680 521.802612,266.237152 
	C518.240601,264.341614 515.226868,262.050598 511.832977,261.053101 
	C498.537354,257.145477 484.151123,262.235870 475.837891,273.338074 
	C469.095978,282.341858 467.375458,292.668671 467.841278,303.573792 
	C468.473480,318.374237 477.151306,329.816376 491.986847,334.728699 
z"/>
<path fill="#FEFEFE" opacity="1.000000" stroke="none" 
	d="
M316.000000,493.000000 
	C211.076080,493.000000 106.152153,493.000000 1.000000,493.000000 
	C1.000000,396.979218 1.000000,300.958282 1.363833,204.591583 
	C7.789190,226.667648 24.308111,234.294769 45.647072,224.515305 
	C47.743362,223.554611 49.812466,222.534607 51.936916,221.521759 
	C54.110516,223.556808 55.882980,225.981491 58.270782,227.216141 
	C60.276386,228.253174 63.339924,228.757858 65.323402,227.966003 
	C68.231964,226.804855 68.954865,223.822021 67.346710,220.792435 
	C59.990761,206.934662 60.114326,192.028961 61.426750,177.274734 
	C63.159481,184.694183 64.248741,191.937119 66.200623,198.939575 
	C71.325859,217.326584 77.457840,235.452652 82.041222,253.966766 
	C90.468010,288.005890 101.168480,321.053284 119.588448,351.187256 
	C129.306641,367.085693 140.734756,381.110046 156.947250,391.205292 
	C170.024719,399.348389 182.041367,409.185608 194.610672,418.156342 
	C221.514008,437.357269 248.181961,456.909546 275.538025,475.444702 
	C287.551605,483.584473 300.667236,490.484253 315.896118,491.516479 
	C315.946655,492.208710 315.973328,492.604370 316.000000,493.000000 
z"/>
<path fill="#FEFEFE" opacity="1.000000" stroke="none" 
	d="
M0.999998,184.000000 
	C1.000000,123.065132 1.000000,62.130268 1.000000,1.000000 
	C76.354118,1.000000 151.708405,1.000000 227.422607,1.230443 
	C227.515259,1.667273 227.247986,1.873661 226.579941,2.115406 
	C221.785065,2.938745 217.356750,3.572687 213.002319,4.539400 
	C181.842224,11.457142 156.283295,28.335089 133.690842,50.050323 
	C116.510574,66.563499 102.243973,85.557442 89.388496,105.575760 
	C86.872147,109.494179 85.289116,114.011955 83.199928,118.172379 
	C83.124237,118.091454 83.291908,118.240593 82.936188,118.174278 
	C78.722099,124.580437 74.404083,130.830139 71.130119,137.585831 
	C67.610054,144.849350 65.069763,152.587677 61.815025,159.925476 
	C59.166615,158.215469 56.958424,156.348587 54.419483,155.237473 
	C33.764618,146.198395 10.215827,157.493866 2.985024,179.751282 
	C2.505685,181.226746 1.669959,182.586456 0.999998,184.000000 
z"/>
<path fill="#050505" opacity="1.000000" stroke="none" 
	d="
M0.999998,184.399994 
	C1.669959,182.586456 2.505685,181.226746 2.985024,179.751282 
	C10.215827,157.493866 33.764618,146.198395 54.419483,155.237473 
	C56.958424,156.348587 59.166615,158.215469 61.892155,160.252441 
	C62.380783,162.936401 62.748951,165.120056 62.573154,167.258987 
	C62.305264,170.518448 61.660912,173.746964 61.176414,176.988617 
	C60.114326,192.028961 59.990761,206.934662 67.346710,220.792435 
	C68.954865,223.822021 68.231964,226.804855 65.323402,227.966003 
	C63.339924,228.757858 60.276386,228.253174 58.270782,227.216141 
	C55.882980,225.981491 54.110516,223.556808 51.936916,221.521759 
	C49.812466,222.534607 47.743362,223.554611 45.647072,224.515305 
	C24.308111,234.294769 7.789190,226.667648 1.363833,204.122925 
	C1.000000,202.285645 1.000000,200.571289 1.276343,198.235031 
	C1.368458,196.408752 1.184229,195.204376 1.000000,194.000000 
	C1.000000,193.555557 1.000000,193.111099 1.259481,192.118256 
	C1.345975,190.379913 1.172988,189.189957 1.000000,188.000000 
	C1.000000,186.933334 1.000000,185.866653 0.999998,184.399994 
M42.207733,213.972198 
	C48.389359,211.371841 49.546940,206.986389 48.765396,200.425659 
	C47.652248,191.081329 47.855022,181.543579 48.018761,172.097504 
	C48.117920,166.376755 47.049194,164.567490 41.240589,164.185730 
	C40.254124,164.120895 39.237003,164.214203 38.258644,164.379791 
	C16.554209,168.053253 9.113138,194.253662 18.987186,210.316101 
	C20.697735,213.098709 24.979500,215.336258 28.352060,215.799805 
	C32.577999,216.380661 37.091400,214.870117 42.207733,213.972198 
z"/>
<path fill="#030303" opacity="1.000000" stroke="none" 
	d="
M585.000000,316.550018 
	C584.382629,318.107056 583.691406,319.179810 583.159546,320.326508 
	C578.761841,329.808746 568.752136,334.548920 558.780212,331.840302 
	C549.312683,329.268616 543.055237,319.894318 544.014221,309.719086 
	C544.934143,299.958405 553.280396,292.156799 563.385620,291.611725 
	C573.545715,291.063751 581.952576,297.541718 584.653076,307.866089 
	C585.000000,310.700012 585.000000,313.400024 585.000000,316.550018 
z"/>
<path fill="#C2FBEC" opacity="1.000000" stroke="none" 
	d="
M226.980713,2.080054 
	C227.247986,1.873661 227.515259,1.667273 227.891266,1.230443 
	C235.687576,1.000000 243.375168,1.000000 251.531372,1.000000 
	C251.993729,1.179077 251.987442,1.358154 251.699707,2.075243 
	C250.456894,2.730078 249.496094,2.942658 248.534134,2.947963 
	C242.895721,2.979055 237.255890,3.023570 231.619156,2.920389 
	C230.068405,2.892003 228.526611,2.373608 226.980713,2.080054 
z"/>
<path fill="#CBFEF4" opacity="1.000000" stroke="none" 
	d="
M316.468628,493.000000 
	C315.973328,492.604370 315.946655,492.208710 316.326721,491.454071 
	C324.191315,491.117554 331.649109,491.140015 339.106903,491.162506 
	C339.075134,491.570465 339.043396,491.978394 339.005798,492.693176 
	C331.645752,493.000000 324.291504,493.000000 316.468628,493.000000 
z"/>
<path fill="#232323" opacity="1.000000" stroke="none" 
	d="
M1.000000,194.399994 
	C1.184229,195.204376 1.368458,196.408752 1.276343,197.806564 
	C1.000000,196.933334 1.000000,195.866653 1.000000,194.399994 
z"/>
<path fill="#232323" opacity="1.000000" stroke="none" 
	d="
M1.000000,188.399994 
	C1.172988,189.189957 1.345975,190.379913 1.259481,191.784943 
	C1.000000,190.933334 1.000000,189.866653 1.000000,188.399994 
z"/>
<path fill="#9AFEE0" opacity="1.000000" stroke="none" 
	d="
M339.510468,491.122131 
	C331.649109,491.140015 324.191315,491.117554 316.302917,491.157471 
	C300.667236,490.484253 287.551605,483.584473 275.538025,475.444702 
	C248.181961,456.909546 221.514008,437.357269 194.610672,418.156342 
	C182.041367,409.185608 170.024719,399.348389 156.947250,391.205292 
	C140.734756,381.110046 129.306641,367.085693 119.588448,351.187256 
	C101.168480,321.053284 90.468010,288.005890 82.041222,253.966766 
	C77.457840,235.452652 71.325859,217.326584 66.200623,198.939575 
	C64.248741,191.937119 63.159481,184.694183 61.426750,177.274734 
	C61.660912,173.746964 62.305264,170.518448 62.573154,167.258987 
	C62.748951,165.120056 62.380783,162.936401 62.179092,160.445801 
	C65.069763,152.587677 67.610054,144.849350 71.130119,137.585831 
	C74.404083,130.830139 78.722099,124.580437 82.876282,118.555679 
	C82.554054,122.578270 81.400314,126.153458 81.402473,129.727951 
	C81.420235,159.053696 81.671387,188.379242 81.795952,217.705078 
	C81.810371,221.101425 81.363480,225.029327 85.366966,226.069534 
	C87.964249,226.744385 91.042175,225.569382 93.904755,225.223206 
	C93.871162,224.776062 93.837570,224.328918 93.803978,223.881790 
	C95.356194,224.457626 96.892357,225.081985 98.463081,225.601929 
	C117.448753,231.886551 135.372787,225.150925 144.175980,208.457428 
	C148.807526,199.674637 149.461868,190.341492 147.892059,180.758987 
	C143.777618,155.643661 120.318115,144.404724 98.266800,156.925644 
	C97.017540,157.634964 95.742111,158.298218 94.294792,159.082687 
	C94.294792,147.274902 94.118660,135.848877 94.403206,124.434349 
	C94.487465,121.054199 95.674561,117.508873 92.049240,115.545288 
	C88.533623,113.641106 85.733246,115.801300 83.275620,118.253296 
	C85.289116,114.011955 86.872147,109.494179 89.388496,105.575760 
	C102.243973,85.557442 116.510574,66.563499 133.690842,50.050323 
	C156.283295,28.335089 181.842224,11.457142 213.002319,4.539400 
	C217.356750,3.572687 221.785065,2.938745 226.579941,2.115410 
	C228.526611,2.373608 230.068405,2.892003 231.619156,2.920389 
	C237.255890,3.023570 242.895721,2.979055 248.534134,2.947963 
	C249.496094,2.942658 250.456894,2.730078 251.697662,2.344016 
	C284.502441,5.625390 313.992096,18.060247 342.083252,33.903584 
	C357.977173,42.867729 373.324585,52.910892 388.323975,63.323952 
	C408.159363,77.094345 426.483063,92.795845 442.928955,110.542572 
	C454.553558,123.086662 461.416840,138.520386 467.915375,154.013870 
	C477.411530,176.653992 480.792664,200.497131 478.730743,224.817459 
	C476.700409,248.764893 470.465729,271.863800 460.944275,293.978149 
	C458.416107,299.850037 455.261047,305.451996 451.784363,310.847443 
	C451.445587,299.238800 451.099335,287.899445 452.209198,276.704437 
	C452.920502,269.529541 452.976807,267.298340 446.552795,264.125336 
	C432.942352,257.402771 419.828613,258.409546 407.613770,267.427032 
	C392.339325,278.703247 386.872742,299.129700 393.490601,318.629852 
	C397.104309,329.277924 404.773254,334.494232 415.585022,336.047363 
	C424.115173,337.272736 431.664734,334.637665 438.954468,330.766205 
	C441.133148,329.609100 442.907288,328.921906 444.097107,331.835144 
	C440.610840,338.771881 437.011017,345.654236 433.658112,352.654846 
	C419.539948,382.132172 405.571899,411.681610 391.380280,441.123413 
	C386.789185,450.648102 382.753937,460.713806 376.555542,469.125397 
	C367.662415,481.193848 355.060089,488.651520 339.510468,491.122131 
M306.363617,224.151794 
	C306.357086,222.432678 306.350555,220.713562 306.796875,218.307236 
	C306.853577,208.148804 306.974945,197.990128 306.934509,187.832077 
	C306.918823,183.887527 306.537781,179.944412 306.212097,175.137375 
	C306.474701,169.312134 306.897034,163.488327 306.948639,157.661209 
	C306.989014,153.105301 304.111298,150.657928 299.578156,150.889038 
	C294.151428,151.165665 293.207031,155.138535 293.098969,159.303009 
	C292.688599,175.119644 292.338409,190.940918 292.288116,206.761475 
	C292.276703,210.348465 291.259796,211.882339 287.738647,212.215134 
	C283.113739,212.652267 278.531952,213.781662 273.908142,213.943848 
	C264.991577,214.256638 263.054504,212.235825 261.950378,203.320282 
	C260.157928,188.846954 260.375885,174.424042 262.390869,159.985748 
	C263.195068,154.223129 260.891571,150.892258 256.312469,150.346863 
	C252.123734,149.847961 249.765533,152.088287 248.742889,157.667084 
	C245.482330,175.454132 246.823883,193.196609 249.644424,210.858109 
	C251.326736,221.392380 258.444427,227.851822 269.186340,227.857574 
	C276.996094,227.861755 284.806671,226.293777 293.052643,225.378372 
	C296.086670,231.560410 300.074829,232.355804 306.355499,226.751572 
	C306.366760,226.171936 306.377991,225.592300 306.363617,224.151794 
M361.260376,281.419434 
	C361.892792,284.334503 362.759552,287.221130 363.117767,290.169525 
	C364.823792,304.212799 366.296112,318.284912 368.061584,332.320343 
	C368.659943,337.077332 371.727112,339.122345 376.087860,338.361145 
	C380.161255,337.650116 382.144714,334.828003 381.646423,330.375488 
	C381.109680,325.578918 380.604645,320.777100 379.959778,315.994598 
	C378.047852,301.814880 376.421570,287.583862 374.003265,273.489655 
	C372.360291,263.914307 365.813782,259.525543 356.138733,259.767395 
	C348.179840,259.966370 341.940918,263.592743 336.708496,269.412384 
	C329.971985,257.519897 321.074646,255.583359 311.028748,263.908081 
	C306.663696,267.525299 303.078186,272.083160 299.185181,276.164917 
	C299.190857,276.175995 298.937836,275.914825 298.944672,275.660614 
	C299.051788,271.668182 299.235901,267.677490 299.313446,263.684662 
	C299.395905,259.442719 296.644196,255.628387 293.020721,255.299896 
	C288.526062,254.892426 286.621704,258.111145 286.152588,261.698761 
	C285.467041,266.941803 285.419434,272.285553 285.358429,277.589355 
	C285.236115,288.220154 285.157990,298.854889 285.315887,309.484192 
	C285.419189,316.436096 285.569305,323.434052 286.475067,330.309052 
	C286.985291,334.181763 289.792145,336.851196 294.385681,336.017609 
	C298.295807,335.308105 300.071960,332.007568 299.921661,327.311005 
	C299.662109,319.201050 300.244904,311.044373 299.632385,302.971161 
	C299.037140,295.125366 302.684662,289.708801 307.883789,284.776978 
	C312.217194,280.666382 316.618073,276.626923 320.989075,272.556000 
	C321.557617,272.862946 322.126160,273.169922 322.694702,273.476868 
	C323.134003,277.215942 323.728485,280.944366 323.985779,284.695923 
	C325.124695,301.303162 326.094055,317.922302 327.288513,334.525330 
	C327.644409,339.472595 331.435608,342.155121 335.974670,340.971863 
	C339.809875,339.972076 341.288574,337.107086 340.975037,333.389557 
	C339.954102,321.284363 339.526672,309.068817 337.506775,297.126434 
	C335.742432,286.695282 339.296906,280.651154 348.517456,276.297516 
	C356.519318,272.519348 357.710846,272.520996 361.260376,281.419434 
M213.072327,223.646988 
	C214.594467,222.747131 216.116608,221.847260 217.722336,220.897980 
	C219.876465,224.332916 221.571869,228.337769 226.577286,226.243286 
	C231.089050,224.355392 230.531769,220.707016 230.277588,216.599792 
	C229.424957,202.822037 228.435928,188.994339 228.767593,175.216278 
	C229.195999,157.418961 230.939499,139.656189 231.916412,121.867538 
	C232.232559,116.110840 230.415421,113.991516 226.183228,113.759132 
	C220.992493,113.474106 219.599274,116.966209 219.213043,121.050766 
	C218.617645,127.347176 218.318542,133.672470 217.940079,139.988297 
	C217.568573,146.188080 217.254852,152.391342 216.917496,158.561417 
	C213.155945,156.553574 210.018265,154.102890 206.473724,153.121017 
	C191.132065,148.871277 175.081573,155.571136 168.065308,169.891403 
	C165.083786,175.976700 163.364334,183.102585 162.833923,189.893234 
	C160.579636,218.753937 186.192093,236.161057 213.072327,223.646988 
M267.242859,311.795044 
	C267.481598,300.018463 267.117004,288.186340 268.194580,276.487030 
	C268.801392,269.899139 268.945038,267.703674 263.098297,264.446259 
	C249.600418,256.926147 233.175247,258.808380 221.311829,269.155090 
	C208.852066,280.021912 205.149796,293.971375 207.439209,309.737915 
	C210.771194,332.684570 228.361023,342.272308 249.789703,333.111023 
	C252.504654,331.950317 255.164322,330.660370 257.829712,329.439392 
	C260.041931,331.516968 261.816132,333.974884 264.218903,335.194824 
	C266.222443,336.212097 269.327576,336.627472 271.290771,335.785095 
	C274.157806,334.554840 274.505096,331.705688 273.199249,328.538208 
	C271.054230,323.335175 269.360199,317.946228 267.242859,311.795044 
M194.463379,307.257111 
	C190.954941,295.463074 181.290359,291.226410 170.785858,288.184753 
	C165.941528,286.782013 160.960236,285.852295 156.014496,284.701904 
	C158.467575,276.718811 170.593552,270.218323 183.563873,269.506378 
	C183.703369,270.293976 183.833923,271.103821 183.991394,271.908417 
	C185.066528,277.401642 187.481079,279.576294 191.753250,278.907745 
	C195.872025,278.263184 197.832138,275.107544 197.232849,269.831024 
	C196.914368,267.027008 196.242477,264.260925 195.969254,261.454437 
	C195.230423,253.865128 191.461349,251.391144 184.033676,253.783844 
	C176.605347,256.176758 169.083130,258.325623 161.796524,261.093353 
	C157.355530,262.780212 152.698441,264.751068 149.151077,267.780273 
	C137.800171,277.473206 140.557922,294.001068 154.029449,298.465942 
	C158.588943,299.977081 163.501068,300.460724 168.002701,302.099091 
	C171.960052,303.539398 176.187500,305.273468 179.185547,308.068542 
	C183.578217,312.163818 182.749939,318.152802 177.816147,320.076843 
	C167.785904,323.988342 157.654709,324.316040 148.334366,317.954742 
	C144.942612,315.639832 141.991455,315.013092 138.987366,317.993225 
	C135.873032,321.082794 135.986115,324.803925 138.633728,327.874298 
	C140.507050,330.046753 143.184982,331.816010 145.849167,332.962830 
	C154.766891,336.801605 164.072586,337.670837 173.712051,336.134888 
	C190.213394,333.505646 197.015610,324.567810 194.463379,307.257111 
M327.329346,157.531021 
	C327.114990,169.350052 326.941956,181.170044 326.673157,192.987823 
	C326.461151,202.306793 326.118408,211.622742 325.859283,220.940720 
	C325.741699,225.169312 327.862946,227.600601 332.050720,227.800827 
	C336.115204,227.995163 338.674255,226.000977 339.226166,221.802948 
	C339.377930,220.648331 339.616028,219.493973 339.642578,218.335571 
	C340.389221,185.712387 341.157532,153.089600 341.800537,120.464317 
	C341.912964,114.758408 339.482666,112.373047 334.574219,112.528900 
	C329.929138,112.676376 328.120789,114.897995 328.014679,120.587883 
	C327.791229,132.573151 327.567841,144.558411 327.329346,157.531021 
z"/>
<path fill="#050505" opacity="1.000000" stroke="none" 
	d="
M491.608551,334.578156 
	C477.151306,329.816376 468.473480,318.374237 467.841278,303.573792 
	C467.375458,292.668671 469.095978,282.341858 475.837891,273.338074 
	C484.151123,262.235870 498.537354,257.145477 511.832977,261.053101 
	C515.226868,262.050598 518.240601,264.341614 521.802612,266.237152 
	C521.972900,265.178680 522.270203,263.992493 522.339905,262.793060 
	C522.910339,252.980515 523.412048,243.163925 523.999939,233.352463 
	C524.128906,231.199402 524.455383,229.051697 524.801758,226.919556 
	C525.454590,222.901443 527.958801,221.284378 531.896912,221.664612 
	C535.934021,222.054413 537.239380,224.718781 537.042236,228.278214 
	C536.287109,241.914352 534.867493,255.539536 534.741577,269.178467 
	C534.566589,288.118713 535.236145,307.070465 535.778931,326.010529 
	C535.885498,329.728210 535.416809,332.674774 531.702942,334.150116 
	C526.734863,336.123688 524.955444,332.302460 522.892944,328.705078 
	C513.349731,335.220612 503.123779,337.477295 491.608551,334.578156 
M505.604797,322.261078 
	C508.593140,320.925934 511.662109,319.743835 514.551941,318.221710 
	C519.572021,315.577576 521.714661,311.614899 521.097412,305.643097 
	C520.485046,299.717590 521.279968,293.656525 520.863220,287.696503 
	C520.669617,284.927795 519.666992,281.795441 517.994568,279.627533 
	C512.513123,272.522125 504.831085,272.081116 496.735931,273.699402 
	C488.044373,275.436890 483.268768,281.186279 481.277618,289.390991 
	C480.423920,292.908630 480.086029,296.626434 480.061279,300.257019 
	C479.966461,314.162964 490.813324,323.783112 505.604797,322.261078 
z"/>
<path fill="#030605" opacity="1.000000" stroke="none" 
	d="
M444.410706,331.985535 
	C442.907288,328.921906 441.133148,329.609100 438.954468,330.766205 
	C431.664734,334.637665 424.115173,337.272736 415.585022,336.047363 
	C404.773254,334.494232 397.104309,329.277924 393.490601,318.629852 
	C386.872742,299.129700 392.339325,278.703247 407.613770,267.427032 
	C419.828613,258.409546 432.942352,257.402771 446.552795,264.125336 
	C452.976807,267.298340 452.920502,269.529541 452.209198,276.704437 
	C451.099335,287.899445 451.445587,299.238800 451.402344,310.895966 
	C453.249603,316.425293 454.659302,321.654938 456.562317,326.698395 
	C457.852356,330.117340 459.240784,333.224152 455.539368,335.932159 
	C451.740662,338.711395 449.121368,336.197113 446.483673,333.862183 
	C445.869293,333.318298 445.309296,332.712982 444.410706,331.985535 
M424.765167,272.999725 
	C410.506683,278.226013 403.529541,290.278778 405.024567,307.100586 
	C406.381500,322.368042 419.316711,329.070984 432.785522,321.554291 
	C437.557953,318.890961 439.587402,315.633789 438.893646,309.608490 
	C437.779510,299.932098 437.790070,290.081360 437.974335,280.316559 
	C438.090576,274.157013 436.803741,272.082123 430.468658,272.106628 
	C428.832031,272.112946 427.197296,272.592560 424.765167,272.999725 
z"/>
<path fill="#FBFBFB" opacity="1.000000" stroke="none" 
	d="
M41.844231,214.117233 
	C37.091400,214.870117 32.577999,216.380661 28.352060,215.799805 
	C24.979500,215.336258 20.697735,213.098709 18.987186,210.316101 
	C9.113138,194.253662 16.554209,168.053253 38.258644,164.379791 
	C39.237003,164.214203 40.254124,164.120895 41.240589,164.185730 
	C47.049194,164.567490 48.117920,166.376755 48.018761,172.097504 
	C47.855022,181.543579 47.652248,191.081329 48.765396,200.425659 
	C49.546940,206.986389 48.389359,211.371841 41.844231,214.117233 
z"/>
<path fill="#020604" opacity="1.000000" stroke="none" 
	d="
M361.151428,281.034851 
	C357.710846,272.520996 356.519318,272.519348 348.517456,276.297516 
	C339.296906,280.651154 335.742432,286.695282 337.506775,297.126434 
	C339.526672,309.068817 339.954102,321.284363 340.975037,333.389557 
	C341.288574,337.107086 339.809875,339.972076 335.974670,340.971863 
	C331.435608,342.155121 327.644409,339.472595 327.288513,334.525330 
	C326.094055,317.922302 325.124695,301.303162 323.985779,284.695923 
	C323.728485,280.944366 323.134003,277.215942 322.694702,273.476868 
	C322.126160,273.169922 321.557617,272.862946 320.989075,272.556000 
	C316.618073,276.626923 312.217194,280.666382 307.883789,284.776978 
	C302.684662,289.708801 299.037140,295.125366 299.632385,302.971161 
	C300.244904,311.044373 299.662109,319.201050 299.921661,327.311005 
	C300.071960,332.007568 298.295807,335.308105 294.385681,336.017609 
	C289.792145,336.851196 286.985291,334.181763 286.475067,330.309052 
	C285.569305,323.434052 285.419189,316.436096 285.315887,309.484192 
	C285.157990,298.854889 285.236115,288.220154 285.358429,277.589355 
	C285.419434,272.285553 285.467041,266.941803 286.152588,261.698761 
	C286.621704,258.111145 288.526062,254.892426 293.020721,255.299896 
	C296.644196,255.628387 299.395905,259.442719 299.313446,263.684662 
	C299.235901,267.677490 299.051788,271.668182 298.944672,275.660614 
	C298.937836,275.914825 299.190857,276.175995 299.185181,276.164917 
	C303.078186,272.083160 306.663696,267.525299 311.028748,263.908081 
	C321.074646,255.583359 329.971985,257.519897 336.708496,269.412384 
	C341.940918,263.592743 348.179840,259.966370 356.138733,259.767395 
	C365.813782,259.525543 372.360291,263.914307 374.003265,273.489655 
	C376.421570,287.583862 378.047852,301.814880 379.959778,315.994598 
	C380.604645,320.777100 381.109680,325.578918 381.646423,330.375488 
	C382.144714,334.828003 380.161255,337.650116 376.087860,338.361145 
	C371.727112,339.122345 368.659943,337.077332 368.061584,332.320343 
	C366.296112,318.284912 364.823792,304.212799 363.117767,290.169525 
	C362.759552,287.221130 361.892792,284.334503 361.151428,281.034851 
z"/>
<path fill="#020604" opacity="1.000000" stroke="none" 
	d="
M212.738892,223.811218 
	C186.192093,236.161057 160.579636,218.753937 162.833923,189.893234 
	C163.364334,183.102585 165.083786,175.976700 168.065308,169.891403 
	C175.081573,155.571136 191.132065,148.871277 206.473724,153.121017 
	C210.018265,154.102890 213.155945,156.553574 216.917496,158.561417 
	C217.254852,152.391342 217.568573,146.188080 217.940079,139.988297 
	C218.318542,133.672470 218.617645,127.347176 219.213043,121.050766 
	C219.599274,116.966209 220.992493,113.474106 226.183228,113.759132 
	C230.415421,113.991516 232.232559,116.110840 231.916412,121.867538 
	C230.939499,139.656189 229.195999,157.418961 228.767593,175.216278 
	C228.435928,188.994339 229.424957,202.822037 230.277588,216.599792 
	C230.531769,220.707016 231.089050,224.355392 226.577286,226.243286 
	C221.571869,228.337769 219.876465,224.332916 217.722336,220.897980 
	C216.116608,221.847260 214.594467,222.747131 212.738892,223.811218 
M209.800247,168.553482 
	C195.049911,159.842422 179.114243,166.746094 175.781570,183.425949 
	C175.103882,186.817795 174.897629,190.368347 174.973083,193.834900 
	C175.290985,208.442474 190.336151,218.598587 203.997955,213.556747 
	C212.469238,210.430450 215.939178,205.413605 215.841537,196.597397 
	C215.788055,191.768921 215.502625,186.904922 215.963684,182.118790 
	C216.499374,176.557526 214.433990,172.449249 209.800247,168.553482 
z"/>
<path fill="#030806" opacity="1.000000" stroke="none" 
	d="
M83.199928,118.172379 
	C85.733246,115.801300 88.533623,113.641106 92.049240,115.545288 
	C95.674561,117.508873 94.487465,121.054199 94.403206,124.434349 
	C94.118660,135.848877 94.294792,147.274902 94.294792,159.082687 
	C95.742111,158.298218 97.017540,157.634964 98.266800,156.925644 
	C120.318115,144.404724 143.777618,155.643661 147.892059,180.758987 
	C149.461868,190.341492 148.807526,199.674637 144.175980,208.457428 
	C135.372787,225.150925 117.448753,231.886551 98.463081,225.601929 
	C96.892357,225.081985 95.356194,224.457626 93.803978,223.881790 
	C93.837570,224.328918 93.871162,224.776062 93.904755,225.223206 
	C91.042175,225.569382 87.964249,226.744385 85.366966,226.069534 
	C81.363480,225.029327 81.810371,221.101425 81.795952,217.705078 
	C81.671387,188.379242 81.420235,159.053696 81.402473,129.727951 
	C81.400314,126.153458 82.554054,122.578270 83.232010,118.621994 
	C83.291908,118.240593 83.124237,118.091454 83.199928,118.172379 
M97.421242,172.078796 
	C94.658203,173.533691 93.589211,175.638779 93.715157,178.918823 
	C93.995880,186.230148 93.777901,193.559875 93.801964,200.881973 
	C93.831657,209.915894 93.764679,210.194763 102.467392,212.815979 
	C112.391594,215.805115 121.935211,215.547577 129.570908,207.118118 
	C138.252167,197.534439 138.303207,179.563919 128.969940,170.610168 
	C125.891891,167.657272 121.072403,165.802750 116.762039,165.012772 
	C109.601540,163.700455 103.621841,167.523087 97.421242,172.078796 
z"/>
<path fill="#030605" opacity="1.000000" stroke="none" 
	d="
M267.359436,312.215332 
	C269.360199,317.946228 271.054230,323.335175 273.199249,328.538208 
	C274.505096,331.705688 274.157806,334.554840 271.290771,335.785095 
	C269.327576,336.627472 266.222443,336.212097 264.218903,335.194824 
	C261.816132,333.974884 260.041931,331.516968 257.829712,329.439392 
	C255.164322,330.660370 252.504654,331.950317 249.789703,333.111023 
	C228.361023,342.272308 210.771194,332.684570 207.439209,309.737915 
	C205.149796,293.971375 208.852066,280.021912 221.311829,269.155090 
	C233.175247,258.808380 249.600418,256.926147 263.098297,264.446259 
	C268.945038,267.703674 268.801392,269.899139 268.194580,276.487030 
	C267.117004,288.186340 267.481598,300.018463 267.359436,312.215332 
M220.725494,302.479553 
	C220.782623,303.641724 220.804596,304.806854 220.902695,305.965546 
	C221.481155,312.798340 222.798325,319.615875 229.764908,322.639313 
	C237.079620,325.813843 244.279236,324.406708 251.060135,320.038849 
	C254.729233,317.675385 255.082062,314.829071 254.827667,310.824066 
	C254.167023,300.423370 253.633911,289.962006 254.074036,279.568237 
	C254.266922,275.012939 253.047501,273.068115 249.043304,272.444763 
	C247.115814,272.144775 245.045197,272.099243 243.135788,272.455292 
	C230.245239,274.859100 221.329361,286.508087 220.725494,302.479553 
z"/>
<path fill="#020604" opacity="1.000000" stroke="none" 
	d="
M194.607971,307.634521 
	C197.015610,324.567810 190.213394,333.505646 173.712051,336.134888 
	C164.072586,337.670837 154.766891,336.801605 145.849167,332.962830 
	C143.184982,331.816010 140.507050,330.046753 138.633728,327.874298 
	C135.986115,324.803925 135.873032,321.082794 138.987366,317.993225 
	C141.991455,315.013092 144.942612,315.639832 148.334366,317.954742 
	C157.654709,324.316040 167.785904,323.988342 177.816147,320.076843 
	C182.749939,318.152802 183.578217,312.163818 179.185547,308.068542 
	C176.187500,305.273468 171.960052,303.539398 168.002701,302.099091 
	C163.501068,300.460724 158.588943,299.977081 154.029449,298.465942 
	C140.557922,294.001068 137.800171,277.473206 149.151077,267.780273 
	C152.698441,264.751068 157.355530,262.780212 161.796524,261.093353 
	C169.083130,258.325623 176.605347,256.176758 184.033676,253.783844 
	C191.461349,251.391144 195.230423,253.865128 195.969254,261.454437 
	C196.242477,264.260925 196.914368,267.027008 197.232849,269.831024 
	C197.832138,275.107544 195.872025,278.263184 191.753250,278.907745 
	C187.481079,279.576294 185.066528,277.401642 183.991394,271.908417 
	C183.833923,271.103821 183.703369,270.293976 183.563873,269.506378 
	C170.593552,270.218323 158.467575,276.718811 156.014496,284.701904 
	C160.960236,285.852295 165.941528,286.782013 170.785858,288.184753 
	C181.290359,291.226410 190.954941,295.463074 194.607971,307.634521 
z"/>
<path fill="#020604" opacity="1.000000" stroke="none" 
	d="
M306.344025,218.994446 
	C306.350555,220.713562 306.357086,222.432678 306.216736,224.878754 
	C306.006042,226.048126 305.942261,226.490540 305.878510,226.932938 
	C300.074829,232.355804 296.086670,231.560410 293.052643,225.378372 
	C284.806671,226.293777 276.996094,227.861755 269.186340,227.857574 
	C258.444427,227.851822 251.326736,221.392380 249.644424,210.858109 
	C246.823883,193.196609 245.482330,175.454132 248.742889,157.667084 
	C249.765533,152.088287 252.123734,149.847961 256.312469,150.346863 
	C260.891571,150.892258 263.195068,154.223129 262.390869,159.985748 
	C260.375885,174.424042 260.157928,188.846954 261.950378,203.320282 
	C263.054504,212.235825 264.991577,214.256638 273.908142,213.943848 
	C278.531952,213.781662 283.113739,212.652267 287.738647,212.215134 
	C291.259796,211.882339 292.276703,210.348465 292.288116,206.761475 
	C292.338409,190.940918 292.688599,175.119644 293.098969,159.303009 
	C293.207031,155.138535 294.151428,151.165665 299.578156,150.889038 
	C304.111298,150.657928 306.989014,153.105301 306.948639,157.661209 
	C306.897034,163.488327 306.474701,169.312134 306.151093,176.025726 
	C306.174744,190.940857 306.259399,204.967651 306.344025,218.994446 
z"/>
<path fill="#030705" opacity="1.000000" stroke="none" 
	d="
M327.336884,157.037354 
	C327.567841,144.558411 327.791229,132.573151 328.014679,120.587883 
	C328.120789,114.897995 329.929138,112.676376 334.574219,112.528900 
	C339.482666,112.373047 341.912964,114.758408 341.800537,120.464317 
	C341.157532,153.089600 340.389221,185.712387 339.642578,218.335571 
	C339.616028,219.493973 339.377930,220.648331 339.226166,221.802948 
	C338.674255,226.000977 336.115204,227.995163 332.050720,227.800827 
	C327.862946,227.600601 325.741699,225.169312 325.859283,220.940720 
	C326.118408,211.622742 326.461151,202.306793 326.673157,192.987823 
	C326.941956,181.170044 327.114990,169.350052 327.336884,157.037354 
z"/>
<path fill="#A1DAC9" opacity="1.000000" stroke="none" 
	d="
M306.570435,218.650848 
	C306.259399,204.967651 306.174744,190.940857 306.206635,176.457352 
	C306.537781,179.944412 306.918823,183.887527 306.934509,187.832077 
	C306.974945,197.990128 306.853577,208.148804 306.570435,218.650848 
z"/>
<path fill="#A1DAC9" opacity="1.000000" stroke="none" 
	d="
M306.117004,226.842255 
	C305.942261,226.490540 306.006042,226.048126 306.229523,225.309204 
	C306.377991,225.592300 306.366760,226.171936 306.117004,226.842255 
z"/>
<path fill="#FBFBFB" opacity="1.000000" stroke="none" 
	d="
M505.202637,322.338593 
	C490.813324,323.783112 479.966461,314.162964 480.061279,300.257019 
	C480.086029,296.626434 480.423920,292.908630 481.277618,289.390991 
	C483.268768,281.186279 488.044373,275.436890 496.735931,273.699402 
	C504.831085,272.081116 512.513123,272.522125 517.994568,279.627533 
	C519.666992,281.795441 520.669617,284.927795 520.863220,287.696503 
	C521.279968,293.656525 520.485046,299.717590 521.097412,305.643097 
	C521.714661,311.614899 519.572021,315.577576 514.551941,318.221710 
	C511.662109,319.743835 508.593140,320.925934 505.202637,322.338593 
z"/>
<path fill="#9AFBDF" opacity="1.000000" stroke="none" 
	d="
M425.163422,272.927246 
	C427.197296,272.592560 428.832031,272.112946 430.468658,272.106628 
	C436.803741,272.082123 438.090576,274.157013 437.974335,280.316559 
	C437.790070,290.081360 437.779510,299.932098 438.893646,309.608490 
	C439.587402,315.633789 437.557953,318.890961 432.785522,321.554291 
	C419.316711,329.070984 406.381500,322.368042 405.024567,307.100586 
	C403.529541,290.278778 410.506683,278.226013 425.163422,272.927246 
z"/>
<path fill="#99FBDE" opacity="1.000000" stroke="none" 
	d="
M210.090851,168.785156 
	C214.433990,172.449249 216.499374,176.557526 215.963684,182.118790 
	C215.502625,186.904922 215.788055,191.768921 215.841537,196.597397 
	C215.939178,205.413605 212.469238,210.430450 203.997955,213.556747 
	C190.336151,218.598587 175.290985,208.442474 174.973083,193.834900 
	C174.897629,190.368347 175.103882,186.817795 175.781570,183.425949 
	C179.114243,166.746094 195.049911,159.842422 210.090851,168.785156 
z"/>
<path fill="#9AFCDF" opacity="1.000000" stroke="none" 
	d="
M97.735580,171.869904 
	C103.621841,167.523087 109.601540,163.700455 116.762039,165.012772 
	C121.072403,165.802750 125.891891,167.657272 128.969940,170.610168 
	C138.303207,179.563919 138.252167,197.534439 129.570908,207.118118 
	C121.935211,215.547577 112.391594,215.805115 102.467392,212.815979 
	C93.764679,210.194763 93.831657,209.915894 93.801964,200.881973 
	C93.777901,193.559875 93.995880,186.230148 93.715157,178.918823 
	C93.589211,175.638779 94.658203,173.533691 97.735580,171.869904 
z"/>
<path fill="#9AFBDF" opacity="1.000000" stroke="none" 
	d="
M220.723434,302.009766 
	C221.329361,286.508087 230.245239,274.859100 243.135788,272.455292 
	C245.045197,272.099243 247.115814,272.144775 249.043304,272.444763 
	C253.047501,273.068115 254.266922,275.012939 254.074036,279.568237 
	C253.633911,289.962006 254.167023,300.423370 254.827667,310.824066 
	C255.082062,314.829071 254.729233,317.675385 251.060135,320.038849 
	C244.279236,324.406708 237.079620,325.813843 229.764908,322.639313 
	C222.798325,319.615875 221.481155,312.798340 220.902695,305.965546 
	C220.804596,304.806854 220.782623,303.641724 220.723434,302.009766 
z"/>
</svg>