<svg id="Layer_1" enable-background="new 0 0 512 512" height="512" viewBox="0 0 512 512" width="512" xmlns="http://www.w3.org/2000/svg"><g><g><path d="m453.5 271c30.9-31.8 11.7-81.5-6.3-104.9-19.1-24.9-10.3-43.5-33.7-66.5-23.5-23-48.6-2.8-48.6-2.8-7-13-19.4-26.1-41.4-31.6-21.5-5.4-28.7-7.9-43.1 3.8-20.2-14.6-55.3-14.5-76.5-9.6-50.4 11.5-130.4 25.8-126.2 110.8-2.4 1.7-4.9 4.2-7.2 7.6 0 0-38.6-5.1-47.8 15.7s9.2 38.6 37.5 121.9c2.5 7.3 5.5 13.9 8.9 19.8s-14.8 76.6 49.8 105.1 104.1-.9 104.1-.9c11.2 8 24.3 13.3 39.6 13.8 56.6 1.8 153.3-37.4 168.3-107.1h.1s47.3-25.3 47.3-41.7-24.8-33.4-24.8-33.4z" fill="#f42c3f"/></g><g><path d="m66 190.4s-32.2-1.3-34.5 17 1.9 31.2 1.9 31.2-17.1-39.3-4.7-51 44.2-7.5 44.2-7.5z" fill="#fff"/></g><g><path d="m88.1 161.6s9.7-50.6 43.5-68.5 82.2-33.1 82.2-33.1-94.8 13.6-114.7 44.3-23.4 67.5-23.4 67.5z" fill="#fff"/></g><g><path d="m63.9 210.6s2 39.7 17.5 62.3 52.4 55.5 52.4 55.5-64.1-33.1-67.5-58.9-2.4-58.9-2.4-58.9z" fill="#fff"/></g><g><path d="m259.4 92.3c1.4-1.2 45.3-33.1 88-11.7 0 0-21.5-23.3-40.4-17.1s-47.6 28.8-47.6 28.8z" fill="#fff"/></g><g><path d="m191.7 394.1s21.8 46 81.5 47.2 69.5-4.7 69.5-4.7-61.5 21-93.4 10.1c-32-10.8-55.7-39.8-57.6-52.6z" fill="#fff"/></g><g><path d="m213.8 150.4c-18.2 2-32.7 16.3-34.5 34.5-2.3 23.1-1.4 52.1 15.8 61.4 30.1 16.4 54.2-10.6 54.2-10.6s-59.2-21.9-54.2-48.1 18.7-37.2 18.7-37.2z" fill="#ad1f32"/></g><g><path d="m166.8 202.1s-18.3-2.3-11.6 33.7 62.2 58 62.2 58l26.1-5.8s-8.4-15.7-5.9-24.6c2.5-9 11.6-30.2 11.6-30.2s-35.4 33.4-60 10.8-22.4-41.9-22.4-41.9z" fill="#ad1f32"/></g><g><path d="m184.6 356.6s40-40.2 98.5-44.6 85-33.1 85-33.1-7 48.5-16.4 63.9c0 0-18.7-16.6-39.2-14.5s-94.4 41.9-127.9 28.3z" fill="#ad1f32"/></g><g><path d="m84.3 355.9s-6.9 46.2 44.3 68.5 82.6 10.3 82.6 10.3l-30.9-42.3s-68 8.4-96-36.5z" fill="#ad1f32"/></g><g><path d="m180.3 380.4s-74.5-16.8-96-65.7-20.3-55.3-20.3-55.3 15.7 33.6 46.5 57c30.9 23.3 57.4 28.2 57.4 28.2z" fill="#ad1f32"/></g><g><path d="m173.2 304.1s-73-42.9-67.5-110.5 61.1-73.1 61.1-73.1-28.7 19-29.7 36.9 18.9-25.5 52.5-25c0 0-21.9 28.9-22.2 43.8s-18.8-.8-19.7 17.3c-.8 18.1 9.7 57.3 30.7 73.2s50 23.1 50 23.1z" fill="#ad1f32"/></g><g><path d="m397.8 299.6s30.8 46.7-33.9 83.7-137.7 49-157.6-16c0 0 105-1 135.3-15.5 30.2-14.6-5.5-28.2 56.2-52.2z" fill="#ad1f32"/></g><g><path d="m432.8 331.5s33.4-20.2 32.9-27-21.5-25.5-21.5-25.5l-21.3 12.6s11 17.2 9.9 39.9z" fill="#ad1f32"/></g><g><path d="m368.8 118.4s39.2-18.9 39.8 29.3 65.9 87.6 38.7 129-62.7 5.8-85.6 51.7c0 0 11.3-54.2 4.2-72.2-7-18-16.5-20.4-.3-48.9s28.6-56.2 3.2-88.9z" fill="#ad1f32"/></g><g><path d="m235.2 167.9s-22.3 2.8-17.7 22.8 19.9 19.6 30.1 11.4 22.6-36-12.4-34.2z" fill="#ad1f32"/></g><g><path d="m268.7 190c-.8-1.5-14.7-40-40.5-38.9 0 0 38.6-6.7 55.9 21.5s16.6 24.2-9 42.2l-13.1 10.4c.1 0 12.8-23.4 6.7-35.2z" fill="#ad1f32"/></g><g><path d="m272.9 147.7s12.7-10.9 28.4 1.2 0 31.2 0 31.2z" fill="#ad1f32"/></g><g><path d="m351.5 115.6s-6.1-22.5-36.8-27-55.3 26.1-55.3 26.1l27.5.9 21.4 4.8c-.1.1 32.2-5.3 43.2-4.8z" fill="#ad1f32"/></g><g><path d="m346.6 265.9s-20.7-8.7-3-53.8 27.8-59.1 13-69c-14.8-9.8-33.1-6.9-33.1-6.9s14.4 38.9 3.9 49.3-13.8 41.6-12.4 53c1.4 11.3 8.5 43 8.5 43z" fill="#ad1f32"/></g><g><path d="m268.7 278.3s-6.6-20.2 11.7-39.7c18.3-19.4 37-29.9 37-29.9s.5 46.4 1.4 50.7 13.6 19.5 13.6 19.5-45.9-7.8-63.7-.6z" fill="#ad1f32"/></g><g><path d="m264.5 80.1s-27.8-9.5-50.8-3.6-47 23.1-47 23.1 30.6-6.4 44.4 3.3 31.5 20.3 31.5 20.3c4.3-16.1 10.5-31.2 21.9-43.1z" fill="#ad1f32"/></g><g><g><path d="m222.9 297.9c-.7 0-1.3-.1-2-.3-72.6-24.2-80.8-80.1-81-103 0-5.5 2.8-10.4 7.6-13.2s10.5-2.7 15.2.1l7.4 4.4c3 1.8 4 5.6 2.2 8.6s-5.6 4-8.6 2.2l-7.4-4.4c-1.1-.7-2.1-.3-2.5 0-.5.3-1.3.9-1.2 2.2.2 25.1 9.8 70.3 72.4 91.2 3.3 1.1 5.1 4.7 4 8-1 2.5-3.4 4.2-6.1 4.2z" fill="#3f0f33"/></g><g><path d="m206.1 254.3c-4.2 0-8.2-.5-12-1.7-13.3-3.9-22.8-14.4-26.9-29.5-.9-3.4 1.1-6.8 4.4-7.7s6.8 1.1 7.7 4.4c3 10.9 9.3 18.1 18.3 20.7 14.3 4.2 33.9-3.1 51.2-19 9.4-8.6 14-16.9 13.6-24.6-.5-9.4-8.5-15.5-8.6-15.6-2.8-2.1-3.4-6-1.3-8.8 2-2.8 6-3.4 8.8-1.4.5.4 12.9 9.5 13.8 24.9.7 11.7-5.3 23.4-17.7 34.8-16.7 15.2-35.1 23.5-51.3 23.5z" fill="#3f0f33"/></g><g><path d="m243.8 290.7c-1.9 0-3.7-.8-4.9-2.4-.9-1.1-21.4-28 21.3-65.2 26.8-23.4 44.6-52.5 39.7-64.8-2.7-6.7-13.4-7.6-21.9-7.1-3.5.1-6.4-2.5-6.6-6s2.5-6.4 6-6.6c22.8-1.1 31.2 7.6 34.2 15 8.5 21.1-16.4 55.7-43.1 79-33.7 29.4-19.8 47.7-19.7 47.9 2.2 2.7 1.7 6.7-1 8.8-1.3.9-2.6 1.4-4 1.4z" fill="#3f0f33"/></g><g><path d="m182 243.8c-1.8 0-3.5-.7-4.8-2.2-12.7-14.6-23.4-53.8-12-84.4 7.5-20.3 23.5-32.7 46.1-36 66.2-9.6 92.6 52 92.9 52.6 1.3 3.2-.2 6.9-3.4 8.2s-6.9-.2-8.2-3.4c-.9-2.2-23-53.2-79.4-45-18 2.6-30.2 12-36.1 27.9-9.5 25.5-.4 60 9.7 71.7 2.3 2.6 2 6.6-.6 8.9-1.3 1.2-2.8 1.7-4.2 1.7z" fill="#3f0f33"/></g><g><path d="m249.9 235c-3.9 0-34-.6-50.5-17.7-7.6-7.9-11.2-18-10.6-29.9 1.1-21.3 13.3-38.2 32-44 25.7-8 56.2 7.1 81.7 40.5 2.1 2.8 1.6 6.7-1.2 8.8s-6.7 1.6-8.8-1.2c-22.1-28.9-47.5-42.4-67.9-36.1-13.5 4.2-22.3 16.7-23.1 32.6-.4 8.4 1.9 15.2 7.1 20.5 11.3 11.7 34 14 41.7 13.8 3.4.1 6.3 2.7 6.4 6.2 0 3.5-2.7 6.3-6.2 6.4-.3.1-.4.1-.6.1z" fill="#3f0f33"/></g><g><path d="m219.7 227.3c-2.3 0-4.5-1.3-5.6-3.4-1.6-3.1-.4-6.9 2.7-8.5 1.7-.9 3.5-1.8 5.3-2.9-13.3-11.1-13.4-28.5-6.3-39.9 6.6-10.7 20.3-17.6 36.2-8.9 11.4 6.2 13.8 14 13.7 19.4-.3 20.6-36 39.9-43.1 43.6-1 .4-2 .6-2.9.6zm18-54.9c-6.4 0-10.1 4.9-11.3 6.8-4.5 7.4-4.2 18.3 5.3 24.9.6.4 1 .8 1.4 1.4 10.6-7.4 19.8-16.2 19.9-22.6 0-2.8-2.4-5.6-7.1-8.2-3.1-1.7-5.8-2.3-8.2-2.3z" fill="#3f0f33"/></g><g><path d="m164.1 310.8c-26.2 0-51.4-10.2-68.8-43.5-19.2-36.8-22.5-76.6-9.2-109.2 11.6-28.3 34.3-48.6 65.5-58.6 71.7-23.1 105 27.9 105.3 28.5 1.9 2.9 1 6.8-2 8.7-2.9 1.9-6.8 1-8.7-1.9-1.1-1.8-28.7-43.2-90.8-23.2-27.6 8.9-47.5 26.7-57.7 51.4-12 29.1-8.8 65.1 8.7 98.6 28.9 55.4 82.2 36.1 125 20.7l6.6-2.4c43.5-15.5 84.7-9.5 86.4-9.3 3.4.5 5.8 3.7 5.3 7.2-.5 3.4-3.7 5.8-7.2 5.3-.4-.1-39.9-5.7-80.3 8.7l-6.6 2.4c-20.6 7.2-46.5 16.6-71.5 16.6z" fill="#3f0f33"/></g><g><path d="m323.6 283c-2.3 0-4.6-1.3-5.7-3.5-15.1-30.9-8.3-56.7-2.4-79.4 5.4-20.6 10-38.4-1.1-57.6-6.2-10.6-14.2-17.2-24-19.5-19.7-4.7-40.5 8.7-40.7 8.9-2.9 1.9-6.8 1.1-8.7-1.8s-1.1-6.8 1.8-8.7c1-.7 25.5-16.5 50.5-10.6 13.3 3.1 24.1 11.7 32 25.4 13.8 23.7 8 45.8 2.4 67.1-5.6 21.6-11.5 44 1.5 70.7 1.5 3.1.2 6.9-2.9 8.4-.9.4-1.8.6-2.7.6z" fill="#3f0f33"/></g><g><path d="m198.3 366c-15.8 0-28.7-4.5-36.7-16.2-1.4-2-1.5-4.6-.3-6.6.8-1.5 21.5-36.7 97.1-48.9 53.5-8.7 72.3-20.8 90.2-41.6 1-1.2 2-2.5 2.9-3.7 1.9-2.6 2.4-5.8 1.5-8.6-3.6-10.6-.2-24.6 10.3-41.4 12.4-20 16.9-38.7 12.7-52.8-2.8-9.5-9.8-17-20.7-22-30.3-14.1-48.4 1.6-48.6 1.7-2.6 2.3-6.6 2.1-8.9-.5s-2.1-6.6.5-8.9c1-.9 24.6-21.3 62.3-3.7 14.3 6.7 23.5 16.7 27.4 29.8 5.2 17.6.3 39.9-14 63-11 17.7-10.4 26.9-9.1 30.7 2.3 6.6 1.1 14.1-3.1 20-1.1 1.6-2.3 3.1-3.6 4.6-19.8 23.1-40.4 36.6-97.7 45.9-55.4 9-78.6 30.9-85.6 39.3 18.4 17.6 67.6.2 111.3-15.3l10.2-3.6c22.2-7.8 38.7-7.8 49.1.1 11.2 8.5 10.3 22.4 10.3 23-.2 3.5-3.3 6.1-6.7 5.9-3.5-.2-6.1-3.2-5.9-6.7 0-.3.3-7.9-5.5-12.2-4.7-3.5-14.9-6-37.2 1.8l-10.2 3.6c-32.8 11.4-66.2 23.3-92 23.3z" fill="#3f0f33"/></g><g><path d="m374.1 136.4c-3.5 0-6.3-2.8-6.3-6.3 0-2-1-47.5-45.8-58.8s-77.8 48.3-78.1 48.9c-1.7 3.1-5.5 4.2-8.5 2.5-3.1-1.7-4.2-5.5-2.6-8.5 1.5-2.8 37.8-68.9 92.3-55.1 54.4 13.8 55.3 70.4 55.3 71 0 3.4-2.8 6.2-6.3 6.3z" fill="#3f0f33"/></g><g><path d="m266.3 459.7c-1.3 0-2.7 0-4-.1-74.3-2.3-100.6-107.5-101.7-112-.7-2.8.6-5.7 3.2-7 2.5-1.3 5.7-.8 7.6 1.3 41.2 45.1 153.2 9.6 172.9 2.9 10-31.9 32.6-41 56.5-50.7 7.1-2.9 14.4-5.8 21.6-9.4.2-.1.5-.3.7-.4 6.8-3.4 13.5-7.5 20.2-12.7 35-27.5 17.9-77-1.1-101.8-9.4-12.3-12.6-23.4-15.5-33.3-3.3-11.4-6.1-21.2-17.7-32.5-19.2-18.8-39.4-3.1-40.2-2.4-2.7 2.2-6.7 1.7-8.9-1s-1.7-6.7 1-8.9c10.2-8.2 35.2-18 56.9 3.3 13.9 13.6 17.5 26 21 38 2.8 9.6 5.4 18.7 13.4 29.1 21.9 28.6 41 86.2-1.1 119.3-5.8 4.6-11.8 8.4-17.7 11.6 10.9 32.9 6.2 64.8-13.6 92.5-33.1 46.6-104.3 74.2-153.5 74.2zm-87.3-95.9c10.8 29.2 36.8 81.8 83.7 83.3 46 1.5 115.3-24.4 146.8-68.6 17.3-24.2 21.4-50.9 12.4-79.5-5.7 2.6-11.2 4.8-16.5 6.9-23.6 9.5-42.2 17-50 45.5-.5 2-2 3.6-3.9 4.3-5 1.8-114.1 41.2-172.5 8.1z" fill="#3f0f33"/></g><g><path d="m166.8 352.5c-.7 0-1.4-.1-2-.3-4.3-1.5-105.8-36.8-110.5-114.3-2-33.8 3.3-57.2 16-69.5 9.3-9.1 19.1-8.6 20.2-8.5 3.5.3 6 3.3 5.8 6.8-.3 3.5-3.3 6-6.8 5.8-.1 0-5.3-.1-10.7 5.3-6.6 6.8-14.1 22.6-11.9 59.4 4.1 69 101 102.8 102 103.1 3.3 1.1 5.1 4.7 3.9 8-1 2.5-3.4 4.2-6 4.2z" fill="#3f0f33"/></g><g><path d="m180.5 398.6c-20 0-100.5-4.9-126.3-81.1-10.7-31.4-20-53.7-26.8-69.9-11.9-28.3-17.3-41.2-10.5-56.6 11-24.8 52.6-19.6 54.4-19.4 3.4.5 5.9 3.6 5.4 7.1-.5 3.4-3.6 5.9-7.1 5.4-9.4-1.2-35.3-1.5-41.2 12-4.4 9.9-1 19.1 10.6 46.6 6.9 16.4 16.3 38.9 27.1 70.7 26.4 77.9 117.1 72.6 118.1 72.6 3.5-.2 6.5 2.4 6.7 5.9s-2.4 6.5-5.9 6.7c-.1-.1-1.7 0-4.5 0z" fill="#3f0f33"/></g><g><path d="m173.7 459.3c-16 0-35.3-3.3-57.4-13.1-68.4-30.2-53.6-111.2-53.5-112.1.7-3.4 4-5.7 7.4-5s5.6 4 5 7.4c-.6 2.9-13 72 46.2 98.2 60.6 26.8 97.4.1 97.8-.2 2.8-2.1 6.7-1.5 8.8 1.3s1.5 6.7-1.3 8.8c-1.2.9-20.2 14.7-53 14.7z" fill="#3f0f33"/></g><g><path d="m430.9 352.5c-2.2 0-4.4-1.2-5.6-3.3-1.6-3.1-.5-6.9 2.6-8.5 21.2-11.4 44-28.6 44-36.1 0-10.6-16.3-24.3-22-28.3-2.9-2-3.6-5.9-1.6-8.8s5.9-3.6 8.8-1.6c2.8 1.9 27.4 19.5 27.4 38.7 0 18.7-38.8 40.9-50.7 47.2-.9.4-1.9.7-2.9.7z" fill="#3f0f33"/></g><g><path d="m77.7 176.5c-3.3 0-6.1-2.6-6.3-6-4.2-86.7 73.3-104.2 124.6-115.8l6.5-1.5c52.8-12.1 83.2 11.7 84.5 12.7 2.7 2.2 3.1 6.1 1 8.9-2.2 2.7-6.1 3.1-8.8 1-1.2-.9-27.3-20.9-73.8-10.2l-6.5 1.5c-50 11.3-118.6 26.8-114.8 103 .2 3.5-2.5 6.4-6 6.6-.2-.2-.3-.2-.4-.2z" fill="#3f0f33"/></g><g><path d="m169.1 349.1c-1.4 0-2.8-.5-4-1.4-20.5-16.6-41-47.6-41.8-48.9-1.9-2.9-1.1-6.8 1.8-8.7s6.8-1.1 8.7 1.8c.2.3 20.3 30.7 39.2 46.1 2.7 2.2 3.1 6.2.9 8.9-1.1 1.4-2.9 2.2-4.8 2.2z" fill="#3f0f33"/></g><g><path d="m349.4 356c-.9 0-1.8-.2-2.6-.6-3.2-1.5-4.5-5.2-3.1-8.4 33.8-73 11.6-98.6 11.3-98.9-2.3-2.5-2.2-6.5.3-8.9s6.4-2.3 8.8.1c1.2 1.2 28.9 31-9 112.9-1 2.5-3.3 3.8-5.7 3.8z" fill="#3f0f33"/></g></g></g></svg>