<svg height="512" viewBox="0 0 32 32" width="512" xmlns="http://www.w3.org/2000/svg" xmlns:xlink="http://www.w3.org/1999/xlink"><linearGradient id="linear-gradient" gradientUnits="userSpaceOnUse" x1="32.079" x2="-.025" y1="-.079" y2="32.025"><stop offset="0" stop-color="#fc00ff"/><stop offset="1" stop-color="#00dbde"/></linearGradient><g id="_54_-_folder_closed" data-name="54 - folder closed"><path d="m27 8h-10.3a1 1 0 0 1 -.624-.22l-3.9-3.122a3 3 0 0 0 -1.876-.658h-5.3a3 3 0 0 0 -3 3v18a3 3 0 0 0 3 3h22a3 3 0 0 0 3-3v-14a3 3 0 0 0 -3-3zm-22-2h5.3a1 1 0 0 1 .624.22l3.9 3.122a3 3 0 0 0 1.876.658h10.3a1 1 0 0 1 1 1v1.987h-24v-5.987a1 1 0 0 1 1-1zm22 20h-22a1 1 0 0 1 -1-1v-10.013h24v10.013a1 1 0 0 1 -1 1z" fill="url(#linear-gradient)"/></g></svg>