<svg height="512" viewBox="0 0 32 32" width="512" xmlns="http://www.w3.org/2000/svg" xmlns:xlink="http://www.w3.org/1999/xlink"><linearGradient id="linear-gradient" gradientUnits="userSpaceOnUse" x1="31.322" x2="-.593" y1="-.74" y2="31.175"><stop offset="0" stop-color="#fc00ff"/><stop offset="1" stop-color="#00dbde"/></linearGradient><g id="_55_-_folder_opened" data-name="55 - folder opened"><path d="m29.418 14.24a3.044 3.044 0 0 0 -2.479-1.24h-.319v-2a3.034 3.034 0 0 0 -3.06-3h-6.48a1.071 1.071 0 0 1 -.666-.229l-4.007-3.118a3.065 3.065 0 0 0 -1.907-.653h-5.44a3.034 3.034 0 0 0 -3.06 3v18a2.839 2.839 0 0 0 .457 1.563l.005.007a3.065 3.065 0 0 0 2.598 1.43h19.03a3.025 3.025 0 0 0 2.923-2.108l2.852-9.006a2.952 2.952 0 0 0 -.447-2.646zm-25.418-7.24a1.032 1.032 0 0 1 1.06-1h5.44a1.089 1.089 0 0 1 .676.229l4.007 3.118a3.092 3.092 0 0 0 1.9.653h6.48a1.045 1.045 0 0 1 1.06 1v2h-15.993a3.016 3.016 0 0 0 -2.913 2.108l-1.717 5.43zm23.957 9.288-2.857 9.006a1.036 1.036 0 0 1 -1.01.706h-19.03a1.067 1.067 0 0 1 -.626-.2l3.191-10.094a1.044 1.044 0 0 1 1.005-.706h18.309a1.064 1.064 0 0 1 .869.427.953.953 0 0 1 .149.861z" fill="url(#linear-gradient)"/></g></svg>