<svg id="Capa_1" enable-background="new 0 0 512 512" height="512" viewBox="0 0 512 512" width="512" xmlns="http://www.w3.org/2000/svg"><g><path d="m512 256c0 141.385-114.615 256-256 256-15.704 0-31.077-1.414-46-4.122-3.366-.611-9-8.733-12.319-9.474-63.654-14.212-107.636-49.234-143.66-101.106-2.029-2.922-12.437-1.335-14.345-4.343-25.126-39.605-39.676-86.581-39.676-136.955 0-141.385 114.615-256 256-256s256 114.615 256 256z" fill="#2740b1"/><path d="m450.469 269.645c0 98.389-79.76 178.149-178.149 178.149s-178.148-79.76-178.148-178.149 79.76-178.149 178.148-178.149 178.149 79.76 178.149 178.149z" fill="#314dca"/><path d="m319.835 432.655c5.523 0 10 4.477 10 10v19.319c0 5.523-4.477 10-10 10-5.523 0-10-4.477-10-10v-19.319c0-5.523 4.477-10 10-10zm22.032 4.836 13.661 13.661c3.905 3.905 10.237 3.905 14.142 0 3.905-3.905 3.905-10.237 0-14.142l-13.661-13.661c-3.905-3.905-10.237-3.905-14.142 0-3.905 3.905-3.905 10.237 0 14.142zm-71.867 13.661c3.905 3.905 10.237 3.905 14.142 0l13.661-13.661c3.905-3.905 3.905-10.237 0-14.142-3.905-3.905-10.237-3.905-14.142 0l-13.661 13.661c-3.905 3.905-3.905 10.236 0 14.142z" fill="#6c7fd9"/><path d="m210 400v107.878c-72.747-13.199-134.786-57.14-172.171-117.878h162.171c5.523 0 10 4.477 10 10zm-10-340h-162.616c-5.523 0-10 4.478-10 10v162.617c0 5.523 4.477 10 10 10h162.616c5.523 0 10-4.477 10-10v-162.617c0-5.523-4.477-10-10-10z" fill="#ff3980"/><path d="m83.415 407.951-34.625 7.984c-5.382 1.241-10.75-2.116-11.991-7.497l-36.541-158.459c-1.241-5.381 2.116-10.75 7.497-11.991l34.625-7.984c5.382-1.241 10.75 2.116 11.991 7.497l36.54 158.458c1.242 5.382-2.114 10.75-7.496 11.992z" fill="#ff3980"/><path d="m207.248 379.395-131.472 30.317c-5.382 1.241-10.75-2.116-11.991-7.497l-36.54-158.459c-1.241-5.381 2.116-10.75 7.497-11.991l131.472-30.317c5.382-1.241 10.75 2.116 11.991 7.497l36.54 158.458c1.241 5.382-2.115 10.751-7.497 11.992z" fill="#ff5e95"/><path d="m59 103.473c0-5.523 4.477-10 10-10h88c5.523 0 10 4.477 10 10s-4.477 10-10 10h-88c-5.523 0-10-4.477-10-10zm98 30h-88c-5.523 0-10 4.477-10 10s4.477 10 10 10h88c5.523 0 10-4.477 10-10s-4.477-10-10-10zm-48.6 40h-39.4c-5.523 0-10 4.477-10 10s4.477 10 10 10h39.4c5.523 0 10-4.477 10-10s-4.477-10-10-10z" fill="#ffa2c3"/><path d="m287.725 70v162.617c0 5.523-4.477 10-10 10h-37.723c-5.523 0-10-4.477-10-10v-162.617c0-5.522 4.477-10 10-10h37.723c5.522 0 10 4.478 10 10z" fill="#fa0"/><path d="m412.617 70v162.617c0 5.523-4.477 10-10 10h-131.446c-5.523 0-10-4.477-10-10v-162.617c0-5.523 4.477-10 10-10h131.447c5.522 0 9.999 4.477 9.999 10z" fill="#ffb509"/><path d="m315.672 222.657-19.216 161.478c-.653 5.484-5.627 9.401-11.112 8.749l-37.604-4.475c-5.484-.653-9.401-5.627-8.748-11.112l19.216-161.478c.653-5.484 5.627-9.401 11.112-8.749l37.604 4.475c5.484.653 9.401 5.628 8.748 11.112z" fill="#ffc143"/><path d="m439.546 237.398-19.216 161.478c-.653 5.484-5.627 9.401-11.112 8.749l-127.868-15.217c-5.484-.652-9.401-5.627-8.748-11.111l19.216-161.478c.653-5.484 5.627-9.401 11.112-8.749l127.869 15.217c5.483.652 9.4 5.628 8.747 11.111z" fill="#ffcd6b"/><path d="m334.238 314.81c-.447 5.505-5.273 9.604-10.777 9.157l-39.271-3.192c-5.505-.447-9.604-5.272-9.157-10.777.447-5.504 5.273-9.604 10.777-9.157l39.271 3.191c5.505.447 9.605 5.273 9.157 10.778zm42.524-46.709-87.711-7.128c-5.505-.448-10.33 3.652-10.777 9.157s3.652 10.33 9.157 10.777l87.711 7.129c5.505.447 10.33-3.652 10.777-9.157s-3.653-10.331-9.157-10.778z" fill="#ff9500"/><path d="m362.447 52.504-13.173 162.083c-.447 5.505-5.273 9.604-10.777 9.157l-36.306-2.951c-5.505-.447-9.604-5.272-9.157-10.777l13.173-162.083c.447-5.504 5.273-9.604 10.777-9.157l36.306 2.951c5.504.447 9.604 5.273 9.157 10.777z" fill="#009b5e"/><path d="m488.224 62.727-13.174 162.083c-.447 5.505-5.273 9.604-10.777 9.157l-127.535-10.366c-5.505-.447-9.604-5.272-9.157-10.777l13.173-162.083c.447-5.505 5.273-9.604 10.777-9.157l127.536 10.366c5.504.447 9.604 5.272 9.157 10.777z" fill="#00b972"/><path d="m390.629 10v162.617c0 5.523-4.477 10-10 10h-41.246c-5.523 0-10-4.477-10-10v-162.617c0-5.522 4.477-10 10-10h41.246c5.523 0 10 4.478 10 10z" fill="#00d683"/><path d="m512 10v162.617c0 5.523-4.477 10-10 10h-129.426c-5.523 0-10-4.477-10-10v-162.617c0-5.523 4.477-10 10-10h129.426c5.523 0 10 4.477 10 10z" fill="#00e294"/><path d="m489.071 60.314-72.757 72.756c-1.953 1.953-4.512 2.929-7.071 2.929s-5.118-.977-7.071-2.929l-46.738-46.738c-3.905-3.905-3.905-10.237 0-14.142 3.906-3.905 10.236-3.905 14.143 0l39.667 39.667 65.686-65.686c3.906-3.905 10.236-3.905 14.143 0 3.904 3.907 3.904 10.238-.002 14.143z" fill="#007e4b"/><path d="m125.753 357.886c.86 4.491-2.083 8.829-6.574 9.689s-8.829-2.083-9.69-6.574 2.083-8.829 6.574-9.69c4.491-.859 8.829 2.084 9.69 6.575zm10.015-84.958c-4.25-17.282-21.329-28.469-38.888-25.473-17.05 2.912-29.248 18.113-28.373 35.354.079 1.577.271 3.17.57 4.733.78 4.068 4.711 6.735 8.777 5.955 4.068-.779 6.734-4.709 5.955-8.777-.169-.882-.277-1.779-.322-2.667-.49-9.661 6.354-18.179 15.918-19.812 9.849-1.681 19.415 4.587 21.796 14.269 1.271 5.168.395 10.473-2.469 14.938-2.865 4.469-7.31 7.479-12.515 8.476-1.954.375-3.679 1.509-4.795 3.155-1.117 1.646-1.534 3.668-1.16 5.622l5.243 27.367c.688 3.592 3.831 6.091 7.358 6.09.468 0 .942-.044 1.419-.135 4.068-.779 6.734-4.709 5.955-8.777l-3.99-20.829c6.143-2.688 11.448-7.16 15.111-12.873 5.107-7.961 6.672-17.414 4.41-26.616z" fill="#fff5f5"/></g></svg>