<svg id="Layer_1" enable-background="new 0 0 512 512" height="512" viewBox="0 0 512 512" width="512" xmlns="http://www.w3.org/2000/svg"><g clip-rule="evenodd" fill-rule="evenodd"><path d="m256 512c141 0 256-115 256-256s-115-256-256-256-256 115-256 256 115 256 256 256z" fill="#e6e6e6"/><path d="m256 121.3c13.61 0 24.75 11.14 24.75 24.75v85.18h85.21c13.61 0 24.75 11.14 24.75 24.77 0 13.61-11.14 24.77-24.75 24.77h-85.21v85.18c0 13.61-11.14 24.75-24.75 24.75-13.63 0-24.77-11.14-24.77-24.75v-85.18h-85.18c-13.63 0-24.77-11.17-24.77-24.77 0-13.63 11.14-24.77 24.77-24.77h85.18v-85.18c0-13.61 11.14-24.75 24.77-24.75z" fill="#969696"/></g></svg>