<svg id="Layer_1" viewBox="0 0 512 512" xmlns="http://www.w3.org/2000/svg" xmlns:xlink="http://www.w3.org/1999/xlink" data-name="Layer 1"><linearGradient id="GradientFill_1" gradientUnits="userSpaceOnUse" x1="108.213" x2="406.541" y1="407.415" y2="109.088"><stop offset="0" stop-color="#e81e25"/><stop offset=".108" stop-color="#ea3522"/><stop offset=".416" stop-color="#f1711c"/><stop offset=".678" stop-color="#f59d17"/><stop offset=".881" stop-color="#f8b814"/><stop offset="1" stop-color="#f9c213"/></linearGradient><path d="m67.29 184.947a7 7 0 0 0 9.178-3.711c26.221-61.823 81.1-104.667 147.733-115.847v22.678a12.478 12.478 0 0 0 18.759 10.833l56.166-32.427a12.505 12.505 0 0 0 0-21.66l-56.166-32.431a12.505 12.505 0 0 0 -18.76 10.83v27.994a212.464 212.464 0 0 0 -93.467 39.039 207.454 207.454 0 0 0 -67.154 85.525 7 7 0 0 0 3.711 9.177zm170.91-159.147 51.686 29.84-51.686 29.84zm208.31 307.17a7 7 0 0 0 -9.2 3.65 196.7 196.7 0 0 1 -131.931 112.7v-25.387a12.507 12.507 0 0 0 -18.759-10.833l-56.166 32.427a12.507 12.507 0 0 0 0 21.662l56.166 32.429a12.507 12.507 0 0 0 18.759-10.831v-25.048a210.674 210.674 0 0 0 144.782-121.569 7 7 0 0 0 -3.65-9.201zm-155.131 153.23-51.685-29.84 51.685-29.84zm209.926-264.712a12.379 12.379 0 0 0 -10.832-6.255h-27.111a209.749 209.749 0 0 0 -38.768-85.6 206.975 206.975 0 0 0 -78.014-62.1 7 7 0 0 0 -5.823 12.732 193.53 193.53 0 0 1 108.313 134.968h-23.452a12.506 12.506 0 0 0 -10.83 18.759l32.427 56.166a12.505 12.505 0 0 0 21.661 0l32.424-56.166a12.38 12.38 0 0 0 .005-12.504zm-43.26 59.43-29.84-51.685h59.681zm-221.571 114a14.634 14.634 0 0 0 13.991 10.228h20.762a14.626 14.626 0 0 0 14.005-10.273l4.008-12.727a121.128 121.128 0 0 0 35.7-14.784l11.932 6.168a14.635 14.635 0 0 0 17.128-2.662l14.68-14.68a14.627 14.627 0 0 0 2.64-17.168l-6.171-11.845a121.1 121.1 0 0 0 14.8-35.687l12.79-4.073a14.633 14.633 0 0 0 10.228-13.991v-20.762a14.625 14.625 0 0 0 -10.273-14l-12.727-4.008a121.114 121.114 0 0 0 -14.783-35.7l6.168-11.932a14.634 14.634 0 0 0 -2.661-17.126l-14.681-14.681a14.629 14.629 0 0 0 -17.167-2.639l-11.843 6.169a121.126 121.126 0 0 0 -35.69-14.805l-4.073-12.789a14.633 14.633 0 0 0 -13.991-10.228h-20.762a14.624 14.624 0 0 0 -14 10.273l-4.009 12.729a121.077 121.077 0 0 0 -35.694 14.783l-11.936-6.17a14.634 14.634 0 0 0 -17.125 2.661l-14.686 14.681a14.626 14.626 0 0 0 -2.639 17.167l6.171 11.845a121.119 121.119 0 0 0 -14.806 35.688l-12.787 4.072a14.633 14.633 0 0 0 -10.229 13.991v20.757a14.629 14.629 0 0 0 10.274 14.006l12.726 4.007a121.117 121.117 0 0 0 14.784 35.7l-6.168 11.932a14.634 14.634 0 0 0 2.661 17.126l14.679 14.684a14.624 14.624 0 0 0 17.167 2.639l11.844-6.171a121.127 121.127 0 0 0 35.688 14.8zm-39.4-42.675a7 7 0 0 0 -3.234.792l-15.44 8.043a.594.594 0 0 1 -.8-.122l-14.68-14.682a.6.6 0 0 1 -.124-.8l8.021-15.517a7 7 0 0 0 -.384-7.083 107.343 107.343 0 0 1 -15.859-38.3 7 7 0 0 0 -4.759-5.294l-16.591-5.224a.6.6 0 0 1 -.48-.653v-20.76a.6.6 0 0 1 .477-.651l16.632-5.3a7 7 0 0 0 4.736-5.281 107.357 107.357 0 0 1 15.889-38.289 7 7 0 0 0 .377-7.107l-8.044-15.44a.6.6 0 0 1 .123-.8l14.68-14.68a.6.6 0 0 1 .8-.124l15.517 8.029a7 7 0 0 0 7.083-.385 107.358 107.358 0 0 1 38.3-15.858 7 7 0 0 0 5.292-4.757l5.226-16.595a.6.6 0 0 1 .652-.478h20.762a.6.6 0 0 1 .651.476l5.3 16.634a7 7 0 0 0 5.282 4.737 107.394 107.394 0 0 1 38.288 15.885 7 7 0 0 0 7.108.378l15.439-8.044a.6.6 0 0 1 .8.123l14.68 14.68a.6.6 0 0 1 .125.8l-8.022 15.516a7 7 0 0 0 .385 7.084 107.326 107.326 0 0 1 15.858 38.3 7 7 0 0 0 4.76 5.294l16.592 5.225a.6.6 0 0 1 .478.652v20.762a.6.6 0 0 1 -.476.651l-16.635 5.3a7 7 0 0 0 -4.736 5.281 107.353 107.353 0 0 1 -15.886 38.288 7 7 0 0 0 -.377 7.108l8.044 15.439a.6.6 0 0 1 -.123.8l-14.681 14.673a.6.6 0 0 1 -.8.124l-15.516-8.022a7 7 0 0 0 -7.084.385 107.323 107.323 0 0 1 -38.3 15.858 7 7 0 0 0 -5.294 4.76l-5.226 16.593a.6.6 0 0 1 -.651.478h-20.764a.6.6 0 0 1 -.652-.477l-5.3-16.634a7 7 0 0 0 -5.282-4.737 107.389 107.389 0 0 1 -38.289-15.885 6.99 6.99 0 0 0 -3.869-1.17zm140.276-89.208a76.494 76.494 0 1 0 -76.494 76.493 76.581 76.581 0 0 0 76.493-76.494zm-138.987 0a62.494 62.494 0 1 1 62.493 62.493 62.564 62.564 0 0 1 -62.494-62.494zm-27.12 170.451a193.526 193.526 0 0 1 -108.313-134.969h23.452a12.507 12.507 0 0 0 10.831-18.76l-32.428-56.166a12.506 12.506 0 0 0 -21.661 0l-32.424 56.167a12.507 12.507 0 0 0 10.831 18.759h27.107a209.74 209.74 0 0 0 38.769 85.6 206.966 206.966 0 0 0 78.014 62.1 7 7 0 1 0 5.822-12.732zm-117.288-200.654 29.845 51.685h-59.686z" fill="url(#GradientFill_1)"/></svg>